<?xml version="1.0" encoding="UTF-8" standalone="no"?>
<svg
   xmlns:dc="http://purl.org/dc/elements/1.1/"
   xmlns:cc="http://creativecommons.org/ns#"
   xmlns:rdf="http://www.w3.org/1999/02/22-rdf-syntax-ns#"
   xmlns:svg="http://www.w3.org/2000/svg"
   xmlns="http://www.w3.org/2000/svg"
   xmlns:sodipodi="http://sodipodi.sourceforge.net/DTD/sodipodi-0.dtd"
   xmlns:inkscape="http://www.inkscape.org/namespaces/inkscape"
   version="1.0"
   width="370.000000pt"
   height="150.000000pt"
   viewBox="0 0 370.000000 150.000000"
   preserveAspectRatio="xMidYMid meet"
   id="svg22"
   sodipodi:docname="logo-impuls-clean.svg"
   inkscape:version="0.92.3 (2405546, 2018-03-11)">
  <metadata
     id="metadata28">
    <rdf:RDF>
      <cc:Work
         rdf:about="">
        <dc:format>image/svg+xml</dc:format>
        <dc:type
           rdf:resource="http://purl.org/dc/dcmitype/StillImage" />
      </cc:Work>
    </rdf:RDF>
  </metadata>
  <defs
     id="defs26" />
  <sodipodi:namedview
     pagecolor="#ffffff"
     bordercolor="#666666"
     borderopacity="1"
     objecttolerance="10"
     gridtolerance="10"
     guidetolerance="10"
     inkscape:pageopacity="0"
     inkscape:pageshadow="2"
     inkscape:window-width="1280"
     inkscape:window-height="692"
     id="namedview24"
     showgrid="false"
     inkscape:zoom="1.4379381"
     inkscape:cx="359.61845"
     inkscape:cy="103.81805"
     inkscape:window-x="0"
     inkscape:window-y="0"
     inkscape:window-maximized="1"
     inkscape:current-layer="svg22" />
  <g
     id="g870">
    <path
       d="m 261,68 v 38 H 271.5 282 V 68 30 H 271.5 261 Z"
       id="path4"
       inkscape:connector-curvature="0"
       style="fill:#000000;stroke:none;stroke-width:0.1" />
    <path
       sodipodi:nodetypes="ccscccccccsscccccc"
       d="m 160,51.1 c -9.3,1.9 -18.4,10.4 -21,19.7 -0.5,2.1 -1,15.2 -1,29.9 V 127 h 10.5 10.5 v -25.5 -25.6 0 c 2.63119,-6.503722 10.65186,-5.6 12.76881,-2.8 2.17662,2.698642 2.32339,3.553219 2.23119,5.5 -0.22235,4.694737 -2.9,7.4 -8,7.4 h -4 v 10.6 10.7 l 6.8,-0.5 c 14.6,-1.1 24.3,-10.3 25.8,-24.7 2.1,-19.2 -15.5,-34.9 -34.6,-31 z"
       id="path6"
       inkscape:connector-curvature="0"
       style="fill:#000000;stroke:none;stroke-width:0.1" />
    <path
       d="M 61.5,53.4 C 50.4,58.6 49,62.4 49,87 v 19 H 60 71 V 89.6 c 0,-9 0.3,-17.1 0.6,-18 0.7,-1.9 4.5,-2.1 6.2,-0.4 0.8,0.8 1.2,6.3 1.2,18 V 106 H 89.5 100 V 89.2 c 0,-11.7 0.4,-17.2 1.2,-18 1.7,-1.7 5.5,-1.5 6.2,0.4 0.3,0.9 0.6,9 0.6,18 V 106 h 11 11 V 87 c 0,-20.3 -0.6,-23.8 -5.3,-28.9 -7.5,-8.2 -26,-9.5 -33.8,-2.5 -1.3,1.1 -1.9,1.2 -2.4,0.4 -0.4,-0.7 -2.6,-2.1 -4.9,-3.1 -6,-2.7 -15.7,-2.5 -22.1,0.5 z"
       id="path12"
       inkscape:connector-curvature="0"
       style="fill:#000000;stroke:none;stroke-width:0.1" />
    <path
       d="m 20,79 v 27.1 L 30.8,105.8 41.5,105.5 41.8,78.7 42,52 H 31 20 Z"
       id="path14"
       inkscape:connector-curvature="0"
       style="fill:#000000;stroke:none;stroke-width:0.1" />
    <path
       sodipodi:nodetypes="cccscccscsscccc"
       d="m 202.2,70.7 c 0.4,17.1 0.7,19.3 2.8,23.7 6.8,14.2 31.8,16.7 42.7,4.3 4.6,-5.2 5.3,-9.1 5.3,-29 V 52 H 242.5 232 v 15.9 c 0,13.2 0.15638,17.047568 -1.14362,18.347568 C 230.05638,87.147568 228.3,87 227.6,87 224.5,87 224,84.6 224,68.3 V 52 h -11.1 -11.2 z"
       id="path16"
       inkscape:connector-curvature="0"
       style="fill:#000000;stroke:none;stroke-width:0.1" />
    <path
       d="m 298.3,54 c -7.7,3.4 -10.6,12.5 -6.3,19.4 1.1,1.8 4.8,4.9 8.5,7.1 3.6,2.1 6.4,4.3 6.2,4.9 -0.2,0.6 -3.7,1.2 -8.5,1.4 l -8.2,0.3 v 9.5 9.6 l 14.8,-0.4 c 12.4,-0.3 15.3,-0.6 18.6,-2.4 4.8,-2.5 7.6,-7.4 7.6,-13.5 0,-6.1 -3,-10.5 -10,-14.7 -3,-1.8 -5.5,-3.8 -5.5,-4.5 0,-0.8 2.3,-1.3 6.8,-1.5 L 329,68.9 V 60.5 52 h -13.2 c -10.9,0 -14.1,0.4 -17.5,2 z"
       id="path18"
       inkscape:connector-curvature="0"
       style="fill:#000000;stroke:none;stroke-width:0.1" />
    <circle
       r="12.539638"
       cy="34.192757"
       cx="30.611467"
       id="path835"
       style="fill:#000000;fill-opacity:1;stroke:none;stroke-width:0.26379311;stroke-miterlimit:4;stroke-dasharray:none;stroke-opacity:1" />
    <g
       id="text856"
       style="font-style:normal;font-weight:normal;font-size:66.62886047px;line-height:1.25;font-family:sans-serif;letter-spacing:0px;word-spacing:0px;fill:#000000;fill-opacity:1;stroke:none;stroke-width:1.66572165"
       transform="matrix(0.35846292,0,0,0.33683376,296.41215,-8.7467385)"
       aria-label="®">
      <path
         inkscape:connector-curvature="0"
         id="path858"
         style="stroke-width:1.66572165"
         d="m 128.58705,181.68842 q -4.2619,0 -7.9382,1.52908 -3.6763,1.52908 -6.73446,4.58724 -3.05816,3.05816 -4.61978,6.79953 -1.56161,3.70883 -1.56161,7.9382 0,4.19684 1.56161,7.90567 1.56162,3.6763 4.61978,6.73446 3.05816,3.05816 6.73446,4.61978 3.6763,1.52908 7.9382,1.52908 4.29444,0 7.97074,-1.52908 3.70883,-1.56162 6.76699,-4.61978 3.02563,-3.02562 4.52218,-6.70192 1.52908,-3.6763 1.52908,-7.93821 0,-4.32697 -1.52908,-8.00327 -1.52908,-3.70883 -4.52218,-6.73446 -3.05816,-3.05816 -6.76699,-4.58724 -3.6763,-1.52908 -7.97074,-1.52908 z m 0,-3.35096 q 4.94511,0 9.20702,1.78935 4.29444,1.78935 7.8406,5.33551 3.54616,3.54616 5.30298,7.80807 1.75682,4.2619 1.75682,9.27208 0,4.94511 -1.75682,9.20702 -1.75682,4.22937 -5.30298,7.77553 -3.54616,3.54617 -7.8406,5.33552 -4.26191,1.78935 -9.20702,1.78935 -4.94511,0 -9.23955,-1.78935 -4.2619,-1.78935 -7.80807,-5.33552 -3.54616,-3.54616 -5.30298,-7.77553 -1.75681,-4.26191 -1.75681,-9.20702 0,-5.01018 1.75681,-9.27208 1.75682,-4.26191 5.30298,-7.80807 3.54617,-3.54616 7.80807,-5.33551 4.29444,-1.78935 9.23955,-1.78935 z m -0.87841,13.46892 h -4.00163 v 8.97928 h 4.00163 q 3.5787,0 4.97765,-1.00855 1.43148,-1.00854 1.43148,-3.44856 0,-2.47256 -1.43148,-3.4811 -1.43148,-1.04107 -4.97765,-1.04107 z m 0.22774,-3.35097 q 5.72592,0 8.55634,1.95202 2.83043,1.91948 2.83043,5.85605 0,2.79789 -1.72428,4.61978 -1.69175,1.82188 -4.81498,2.37495 0.78081,0.26027 1.85442,1.52908 1.10614,1.23628 2.60269,3.61123 l 4.4571,7.255 h -5.59578 l -4.19684,-6.79952 q -1.91948,-3.12323 -3.12323,-3.93657 -1.17121,-0.84588 -2.92802,-0.84588 h -2.14722 v 11.58197 h -5.04271 v -27.19811 z" />
    </g>
  </g>
</svg>
